# xmcd CD database file
#
# Track frame offsets:
#	150
#	19125
#	39408
#	57603
#	77255
#	98108
#	119685
#	146573
#	165085
#	193708
#	216613
#	245345
#	272498
#	290940
#
# Disc length: 4261 seconds
#
# Revision: 13
# Processed by: cddbd v1.5.2PL0 Copyright (c) Steve Scherf et al.
# Submitted via: CDex 1.70beta3
#
DISCID=cd10a30e
DTITLE=The Who - Who Are You +5
DYEAR=1978
DGENRE=Rock
TTITLE0=New Song
TTITLE1=Had Enough
TTITLE2=905
TTITLE3=Sister Disco
TTITLE4=Music Must Change
TTITLE5=Trick Of The Light
TTITLE6=Guitar And Pen
TTITLE7=Love Is Coming Down
TTITLE8=Who Are You
TTITLE9=No Road Romance
TTITLE10=Empty Glass
TTITLE11=Guitar And Pen (Olympic '78 Mix)
TTITLE12=Love Is Coming Down (Work-In-Progress Mix)
TTITLE13=Who Are You (Lost Verse Mix)
EXTD=YEAR: 1978
EXTT0=
EXTT1=
EXTT2=
EXTT3=
EXTT4=
EXTT5=
EXTT6=
EXTT7=
EXTT8=
EXTT9=
EXTT10=
EXTT11=
EXTT12=
EXTT13=
PLAYORDER=
